PathFileType	3	(X/Y/Z)	C:\Users\koon_\Desktop\
DataRate	CameraRate	NumFrames	NumMarkers	Units	OrigDataRate	OrigDataStartFrame	OrigNumFrames
100.0	100.0	4	27	mm	100.0	2363	2700	
Frame#	Time	get:LFHD			get:RFHD			get:LBHD			get:RBHD			get:C7			get:T10			get:CLAV			get:STRN			get:RBAK			get:LSHO			get:LUPA			get:LELB			get:LFRA			get:LWRA			get:LWRB			get:LFIN			get:RSHO			get:RUPA			get:RELB			get:RFRA			get:RWRA			get:RWRB			get:RFIN			get:LASI			get:RASI			get:LPSI			get:RPSI			
		X1	Y1	Z1	X2	Y2	Z2	X3	Y3	Z3	X4	Y4	Z4	X5	Y5	Z5	X6	Y6	Z6	X7	Y7	Z7	X8	Y8	Z8	X9	Y9	Z9	X10	Y10	Z10	X11	Y11	Z11	X12	Y12	Z12	X13	Y13	Z13	X14	Y14	Z14	X15	Y15	Z15	X16	Y16	Z16	X17	Y17	Z17	X18	Y18	Z18	X19	Y19	Z19	X20	Y20	Z20	X21	Y21	Z21	X22	Y22	Z22	X23	Y23	Z23	X24	Y24	Z24	X25	Y25	Z25	X26	Y26	Z26	X27	Y27	Z27	
2363	23.62	72.160141	1559.033	-0.28925604	-68.637459	1552.2788	-9.4510241	58.738503	1558.0756	-162.23935	-68.980354	1527.5219	-175.27614	12.386127	1357.136	-177.12779	5.2315097	1144.3988	-222.83757	6.1322513	1269.8875	7.1779909	12.589801	1075.8762	50.621334	-70.42939	1279.8735	-209.24467	145.35428	1346.8955	-93.468048	236.61621	1211.374	-84.384636	253.3651	1023.4692	-114.04416	244.5878	890.52118	-40.876682	215.14679	814.14069	-17.056583	253.90469	802.86859	-92.000427	272.81821	738.66058	-17.874208	-129.3941	1346.0773	-92.982697	-226.98589	1129.4647	-89.81501	-235.72337	1022.3968	-166.98524	-235.99086	965.0332	-85.231316	-209.7191	819.00458	-64.617256	-238.80421	811.07465	-139.88161	-267.0545	751.39856	-64.996956	135.29572	889.55939	4.1437516	-127.40409	877.85327	0.068691611	49.594723	957.21899	-209.50291	-40.305279	955.03949	-213.15285
2364	23.63	72.340042	1558.7362	-0.21146753	-68.434662	1551.7533	-9.4425182	58.906574	1558.0809	-162.15773	-68.766991	1527.355	-175.2435	12.65861	1355.2283	-178.65382	5.4955926	1141.7648	-223.20996	5.8436799	1267.6826	7.8266673	12.377393	1074.6853	50.643368	-70.484962	1276.4619	-209.9996	146.76913	1341.7831	-94.168114	236.74294	1204.5701	-83.691063	252.58536	1016.298	-111.89599	244.19	882.42511	-40.043476	214.70757	805.65424	-17.117699	253.24231	795.56567	-92.439865	272.1347	729.92896	-19.341082	-131.13693	1341.0455	-93.84404	-227.09312	1122.6331	-89.086594	-235.55592	1015.0454	-165.6813	-236.19499	957.3913	-84.51226	-210.47806	811.19055	-64.520721	-239.0289	803.31158	-139.66519	-267.62921	743.42029	-66.193748	135.40227	889.41913	4.1686034	-127.32426	877.75537	0.071807563	49.777344	957.09729	-209.36198	-40.160789	955.00671	-213.23834
2365	23.64	72.553291	1558.368	-0.17285745	-68.243622	1551.1144	-9.5081367	59.166943	1557.9806	-162.12332	-68.46508	1526.9498	-175.16582	12.56667	1352.8804	-178.99849	5.7767534	1139.5022	-223.84322	5.6715741	1265.6309	8.1137362	12.201499	1073.551	50.617798	-70.168503	1272.552	-210.60817	148.03142	1337.1736	-94.742867	236.43158	1198.1871	-82.75032	251.71223	1009.6427	-109.36547	243.64125	874.67822	-39.034023	214.19907	797.50342	-17.369518	252.7014	788.75153	-92.996101	271.6813	721.8938	-21.323364	-132.70253	1336.41	-94.8451	-226.99989	1116.1157	-87.974472	-235.36278	1007.9622	-163.94543	-236.18159	949.88635	-82.95797	-211.19878	803.55817	-64.289383	-239.28905	796.27362	-139.79778	-268.18695	735.48413	-66.931244	135.4662	889.27454	4.2651892	-127.26315	877.60864	-0.0017720959	49.954094	956.91272	-209.14842	-40.009716	954.92004	-213.25458
2366	23.65	72.764145	1557.8783	-0.20273712	-67.979805	1550.4413	-9.6021261	59.493698	1557.6805	-162.13535	-68.050194	1526.4559	-175.34978	13.021429	1351.5684	-180.7216	6.0404801	1137.576	-224.59836	5.329978	1263.8383	8.1919308	12.012436	1072.5259	50.657322	-69.471306	1268.5878	-210.73416	148.95963	1333.3605	-95.181885	235.60797	1192.5039	-81.367523	250.62173	1003.7888	-106.55538	243.00108	867.65387	-38.038834	213.49472	790.10919	-17.831776	252.13698	783.08484	-93.855064	271.42838	715.03577	-23.417171	-133.82162	1332.1826	-95.926079	-226.52733	1110.1881	-86.362251	-234.94301	1001.5156	-161.80856	-236.03581	942.83386	-81.444778	-211.83711	796.35602	-64.068405	-239.81137	790.03888	-139.89049	-268.55453	728.10638	-67.965652	135.53804	889.11145	4.4163461	-127.17774	877.41278	-0.011534691	50.170341	956.76434	-208.99873	-39.795952	954.77423	-213.24657
